<svg width="236" height="300" viewBox="0 0 236 300" fill="none" xmlns="http://www.w3.org/2000/svg">
<g style="mix-blend-mode:screen" clip-path="url(#clip0_739_2078)">
<g opacity="0.55">
<path d="M225.35 240.524L164.58 240.314C158.04 239.814 151.6 242.204 146.96 246.854L104.81 289.074C101.77 292.114 99.3202 295.614 97.4902 299.374H194.07L233.92 251.444C238.87 242.554 228.5 240.084 225.35 240.524Z" fill="#183665"/>
<path d="M160.01 201.544L206.05 156.594C208.99 154.114 207.64 149.324 203.84 148.754L121.49 136.684C109.64 134.944 99.12 128.164 92.64 118.094L30.63 21.6644L30.34 22.2444C25.24 11.8044 13.51 3.71438 0 0.234375V101.914C0.23 102.154 0.47 102.384 0.67 102.674L49.35 175.614C56.72 186.664 68.35 194.154 81.46 196.304L144.62 206.654C150.27 207.514 155.99 205.614 160.01 201.544Z" fill="#183665"/>
</g>
</g>
<defs>
<clipPath id="clip0_739_2078">
<rect width="235.24" height="299.14" fill="white" transform="translate(0 0.234375)"/>
</clipPath>
</defs>
</svg>
