<svg width="324" height="411" viewBox="0 0 324 411" fill="none" xmlns="http://www.w3.org/2000/svg">
<g style="mix-blend-mode:hard-light" opacity="0.3" clip-path="url(#clip0_604_3198)">
<g opacity="0.55">
<path d="M309.673 329.801L226.232 329.513C217.252 328.828 208.41 332.104 202.039 338.477L144.164 396.344C139.99 400.51 136.626 405.307 134.113 410.461H266.724L321.441 344.768C328.237 332.583 313.999 329.198 309.673 329.801Z" fill="#183665"/>
<path d="M219.957 276.376L283.173 214.767C287.21 211.368 285.356 204.803 280.139 204.022L167.067 187.479C150.796 185.094 136.351 175.801 127.454 161.999L42.3099 29.8328L41.9117 30.6277C34.9091 16.3187 18.803 5.23061 0.25293 0.460938V139.823C0.568735 140.152 0.898271 140.467 1.17288 140.865L68.0137 240.836C78.1332 255.981 94.102 266.247 112.103 269.194L198.826 283.379C206.584 284.558 214.437 281.954 219.957 276.376Z" fill="#183665"/>
</g>
</g>
<defs>
<clipPath id="clip0_604_3198">
<rect width="323" height="410" fill="white" transform="translate(0.25293 0.460938)"/>
</clipPath>
</defs>
</svg>
