<svg width="81" height="81" viewBox="0 0 81 81" fill="none" xmlns="http://www.w3.org/2000/svg">
<path d="M39.2978 80.401C38.7613 80.401 38.3437 79.8878 38.4633 79.3577C40.0447 72.3572 39.0324 65.022 35.6127 58.7034C32.1456 52.2963 29.5305 45.3942 30.9826 38.0084C31.0738 37.5454 31.5233 37.2435 31.9862 37.3346C32.4495 37.4257 32.7512 37.8749 32.6601 38.3382C31.2879 45.3164 33.8462 51.8463 37.1163 57.8901C40.7327 64.5726 41.8033 72.3304 40.1308 79.7345C40.0411 80.1314 39.6884 80.401 39.2978 80.401Z" fill="#0D0DA5"/>
<path d="M44.9238 79.1056C44.8797 79.1056 44.8349 79.1022 44.7899 79.0952C44.3236 79.0219 44.0052 78.5844 44.0783 78.1181C44.1641 77.5726 44.2378 77.0155 44.297 76.4627C44.3474 75.9933 44.7662 75.6542 45.2382 75.7041C45.7076 75.7545 46.0472 76.1757 45.997 76.6451C45.9347 77.2256 45.8575 77.8108 45.7672 78.3837C45.7009 78.8049 45.3373 79.1056 44.9238 79.1056Z" fill="#0D0DA5"/>
<path d="M45.3432 73.2584C44.8759 73.2584 44.4945 72.8827 44.4885 72.4142C44.4212 66.9094 42.9995 61.4381 40.3766 56.5916C40.152 56.1764 40.3063 55.6578 40.7215 55.4332C41.1368 55.2087 41.6556 55.3629 41.8802 55.7781C44.6342 60.8672 46.1273 66.6124 46.1981 72.3931C46.2038 72.8651 45.8258 73.2524 45.3538 73.2582C45.3503 73.2584 45.3468 73.2584 45.3432 73.2584Z" fill="#0D0DA5"/>
<path d="M54.8666 4.29088C54.3945 4.29088 54.0117 3.90815 54.0117 3.43618V1.25704C54.0117 0.785078 54.3945 0.402344 54.8666 0.402344C55.3387 0.402344 55.7215 0.785078 55.7215 1.25704V3.43618C55.7213 3.90815 55.3387 4.29088 54.8666 4.29088Z" fill="#0D0DA5"/>
<path d="M36.8201 11.8108C36.6011 11.8108 36.3823 11.7272 36.2153 11.5602L34.6758 10.0193C34.3422 9.68531 34.3425 9.14429 34.6764 8.81061C35.0102 8.47694 35.5516 8.47728 35.8852 8.81112L37.4247 10.352C37.9319 10.8595 37.5375 11.8108 36.8201 11.8108Z" fill="#0D0DA5"/>
<path d="M32.3944 24.143H30.2172C29.745 24.143 29.3623 23.7603 29.3623 23.2883C29.3623 22.8163 29.745 22.4336 30.2172 22.4336H32.3943C32.8664 22.4336 33.2491 22.8163 33.2491 23.2883C33.2491 23.7603 32.8664 24.143 32.3944 24.143Z" fill="#0D0DA5"/>
<path d="M79.6052 24.0512H77.4281C76.956 24.0512 76.5732 23.6685 76.5732 23.1965C76.5732 22.7245 76.956 22.3418 77.4281 22.3418H79.6052C80.0773 22.3418 80.4601 22.7245 80.4601 23.1965C80.4601 23.6685 80.0773 24.0512 79.6052 24.0512Z" fill="#0D0DA5"/>
<path d="M72.9392 11.7464C72.2218 11.7464 71.8273 10.7951 72.3344 10.2876L73.8739 8.74676C74.2078 8.41274 74.749 8.41257 75.0828 8.74607C75.4167 9.07975 75.417 9.62094 75.0833 9.95479L73.5438 11.4956C73.377 11.663 73.158 11.7464 72.9392 11.7464Z" fill="#0D0DA5"/>
<path d="M78.9521 55.4162C76.7407 51.5206 75.1838 47.8801 74.8309 43.3916C74.4974 39.3627 73.5609 35.7665 72.0492 32.6921C72.9152 30.5078 73.3747 28.1612 73.3747 25.7684C73.3747 15.4906 65.092 7.12891 54.9108 7.12891C44.7296 7.12891 36.4473 15.4904 36.4473 25.7682C36.4473 31.0875 38.7083 36.1664 42.6505 39.7027C44.4266 41.2957 45.7556 43.2724 46.532 45.4611C45.0761 45.9753 44.0298 47.3645 44.0298 48.9941C44.0298 50.7493 45.2437 52.2259 46.876 52.6302V55.2753C46.876 56.9507 48.1513 58.3334 49.7823 58.5049C49.7095 61.3628 52.0307 63.8107 54.9112 63.8107C57.7917 63.8107 60.1129 61.363 60.04 58.5049C61.671 58.3334 62.9464 56.9507 62.9464 55.2753V52.6302C64.5787 52.2259 65.7925 50.7493 65.7925 48.9941C65.7925 46.9285 64.1118 45.2478 62.0458 45.2478H48.2647C47.4141 42.6475 45.8782 40.301 43.7922 38.4302C40.211 35.2177 38.157 30.6025 38.157 25.7682C38.157 16.433 45.6729 8.83813 54.9112 8.83813C64.1494 8.83813 71.6653 16.4328 71.6653 25.7682C71.6653 29.8673 70.1963 33.8222 67.5287 36.9044C67.2199 37.2613 67.2588 37.8011 67.6159 38.11C67.9727 38.4189 68.5125 38.38 68.8217 38.023C69.7031 37.0047 70.4629 35.8986 71.0985 34.729C72.1723 37.3088 72.8527 40.2497 73.1245 43.4981C73.1414 48.1186 75.2414 52.3437 77.4703 56.2681C77.8215 56.8828 77.5301 58.0476 76.6797 58.0476H73.9952C73.5231 58.0476 73.1404 58.4303 73.1404 58.9023V64.7566C73.1404 68.4327 70.1494 71.4233 66.4728 71.4233C66.0007 71.4233 65.618 71.806 65.618 72.278C65.618 75.0477 65.5537 77.6901 67.2904 80.0547C67.4581 80.2828 67.7173 80.4036 67.9802 80.4036C68.6757 80.4036 69.0723 79.5928 68.6686 79.0429C67.3393 77.2335 67.3275 75.2183 67.3275 73.0895C71.5469 72.6602 74.8499 69.0869 74.8499 64.7566V59.757H76.6795C78.8258 59.757 79.993 57.1676 78.9521 55.4162ZM54.911 62.1011C52.9568 62.1011 51.4595 60.4355 51.4917 58.5232H58.3301C58.3689 60.4343 56.8611 62.1011 54.911 62.1011ZM61.2366 55.2753C61.2366 56.1235 60.5464 56.8138 59.698 56.8138H50.1242C49.2756 56.8138 48.5855 56.1235 48.5855 55.2753V52.7403H61.2366V55.2753ZM62.0457 46.9572C63.1689 46.9572 64.0828 47.8709 64.0828 48.9941C64.0828 50.1172 63.1691 51.0309 62.0457 51.0309H47.7765C46.6532 51.0309 45.7394 50.1172 45.7394 48.9941C45.7394 47.871 46.6531 46.9572 47.7765 46.9572H62.0457Z" fill="#0D0DA5"/>
<path d="M64.3136 35.8437H45.5078C44.0936 35.8437 42.9434 34.6935 42.9434 33.2796V28.5422C42.9434 28.0702 43.3261 27.6875 43.7982 27.6875C44.2704 27.6875 44.6531 28.0702 44.6531 28.5422V33.2796C44.6531 33.7509 45.0365 34.1343 45.508 34.1343H64.3137C64.785 34.1343 65.1686 33.7509 65.1686 33.2796V28.7131C65.1686 28.2412 65.5513 27.8584 66.0235 27.8584C66.4956 27.8584 66.8783 28.2412 66.8783 28.7131V33.2796C66.878 34.6935 65.7278 35.8437 64.3136 35.8437Z" fill="#0D0DA5"/>
<path d="M65.5107 17.3819H60.3818V15.0465C60.3818 13.6327 59.2316 12.4824 57.8174 12.4824H52.0047C50.5906 12.4824 49.4403 13.6327 49.4403 15.0465V17.3817H44.3114C43.086 17.3817 42.0889 18.3786 42.0889 19.6039V22.9113C42.0889 23.7697 42.6696 24.5186 43.5012 24.7323L51.7641 26.8568V29.0752C51.7641 29.5472 52.1468 29.9299 52.6189 29.9299H57.203C57.6752 29.9299 58.0579 29.5472 58.0579 29.0752V26.8569L66.321 24.7325C67.1526 24.5188 67.7333 23.7699 67.7333 22.9115V19.6041C67.7333 18.3786 66.7362 17.3819 65.5107 17.3819ZM51.15 15.0465C51.15 14.5752 51.5335 14.1918 52.0049 14.1918H57.8176C58.2888 14.1918 58.6724 14.5752 58.6724 15.0465V17.3817H51.15V15.0465ZM56.3483 28.2205H53.4738V25.3465H56.3483V28.2205ZM66.0235 22.9113C66.0235 22.9894 65.9707 23.0574 65.8951 23.0769L58.0577 25.092V24.4918C58.0577 24.0198 57.675 23.6371 57.2029 23.6371H52.6188C52.1466 23.6371 51.7639 24.0198 51.7639 24.4918V25.092L43.9266 23.0769C43.8511 23.0574 43.7983 22.9894 43.7983 22.9113V19.6039C43.7983 19.3212 44.0284 19.0911 44.3111 19.0911H65.5104C65.7933 19.0911 66.0232 19.3212 66.0232 19.6039V22.9113H66.0235Z" fill="#0D0DA5"/>
<path d="M14.807 52.5376H11.4027C10.1773 52.5376 9.18018 51.5407 9.18018 50.3154V49.0706C8.24753 48.7012 7.37967 48.2046 6.58907 47.5881L5.46617 48.2293C4.41164 48.8313 3.05626 48.4681 2.4443 47.4197L0.753188 44.5219C0.143787 43.4776 0.517975 42.0734 1.57028 41.4723L2.66053 40.8496C2.52105 39.8732 2.52105 38.8775 2.66053 37.9009L1.57028 37.2782C0.520368 36.6783 0.142078 35.2753 0.753188 34.2286L2.4443 31.3307C3.05626 30.2821 4.41164 29.9189 5.46617 30.5211L6.58907 31.1625C7.37984 30.5459 8.24753 30.0493 9.18018 29.6797V28.4351C9.18018 27.2098 10.1771 26.2129 11.4027 26.2129H14.8072C16.0326 26.2129 17.0297 27.2098 17.0297 28.4351V29.6799C17.9624 30.0493 18.8301 30.5459 19.6208 31.1626L20.7437 30.5213C21.7981 29.919 23.1538 30.2823 23.7656 31.3308L25.4567 34.2286C26.0663 35.2729 25.6919 36.6771 24.6395 37.2782L23.5492 37.9009C23.6887 38.8773 23.6887 39.8732 23.5492 40.8496L24.6395 41.4722C25.6919 42.0761 26.0709 43.4694 25.4567 44.5217L23.7654 47.4197C23.1533 48.4682 21.7978 48.8313 20.7436 48.2293L19.6207 47.5879C18.8299 48.2045 17.9622 48.701 17.0296 49.0704V50.3154C17.0296 51.5407 16.0326 52.5376 14.807 52.5376ZM6.67796 45.698C6.88087 45.698 7.08206 45.7699 7.24172 45.9101C8.13898 46.6969 9.1689 47.2857 10.3031 47.6602C10.6533 47.7758 10.8899 48.1029 10.8899 48.4718V50.3154C10.8899 50.5981 11.12 50.8282 11.4027 50.8282H14.8072C15.0901 50.8282 15.32 50.5981 15.32 50.3154V48.4718C15.32 48.1031 15.5566 47.7759 15.9068 47.6602C17.0408 47.2857 18.0708 46.6969 18.968 45.9101C19.2422 45.6694 19.639 45.6296 19.9557 45.8105L21.5918 46.7448C21.8352 46.8838 22.1478 46.8 22.289 46.5581L23.9803 43.6602C24.1131 43.3732 24.0502 43.1385 23.7916 42.9564L22.1808 42.0364C21.8598 41.8532 21.6931 41.4843 21.7675 41.1223C22.0036 39.9735 22.0036 38.7766 21.7675 37.6279C21.6931 37.2659 21.86 36.8971 22.1808 36.7137L23.7916 35.7937C24.0501 35.6115 24.113 35.377 23.9803 35.09L22.2889 32.1924C22.1477 31.9505 21.835 31.8664 21.5914 32.0057L19.9554 32.9401C19.6386 33.1209 19.242 33.0811 18.9677 32.8404C18.0704 32.0536 17.0405 31.4648 15.9065 31.0903C15.5562 30.9748 15.3197 30.6476 15.3197 30.2787V28.4351C15.3197 28.1524 15.0896 27.9223 14.8068 27.9223H11.4027C11.1198 27.9223 10.8899 28.1524 10.8899 28.4351V30.2787C10.8899 30.6474 10.6533 30.9746 10.3031 31.0903C9.16907 31.4647 8.13915 32.0536 7.24172 32.8404C6.96753 33.0811 6.57078 33.1209 6.25403 32.9401L4.61814 32.0057C4.37489 31.8669 4.0619 31.9507 3.9207 32.1925L2.22959 35.0905C2.09677 35.3775 2.15968 35.612 2.41831 35.7942L4.02908 36.7141C4.34993 36.8973 4.51677 37.266 4.44241 37.6281C4.20651 38.7771 4.20651 39.9735 4.44241 41.1226C4.51677 41.4847 4.34993 41.8532 4.02908 42.0366L2.41831 42.9566C2.15985 43.1388 2.09695 43.3734 2.22977 43.6605L3.92087 46.5583C4.06207 46.8004 4.37506 46.8841 4.61831 46.7452L6.2542 45.8108C6.38634 45.7351 6.53249 45.698 6.67796 45.698Z" fill="#0D0DA5"/>
<path d="M13.1047 45.3584C9.80536 45.3584 7.12109 42.6744 7.12109 39.3755C7.12109 36.0765 9.80536 33.3926 13.1047 33.3926C16.404 33.3926 19.0882 36.0765 19.0882 39.3755C19.0882 42.6744 16.4042 45.3584 13.1047 45.3584ZM13.1047 35.102C10.7479 35.102 8.83066 37.0191 8.83066 39.3755C8.83066 41.7319 10.7479 43.649 13.1047 43.649C15.4614 43.649 17.3787 41.7319 17.3787 39.3755C17.3787 37.0191 15.4614 35.102 13.1047 35.102Z" fill="#0D0DA5"/>
<path d="M20.877 20.9151H18.2384C17.2015 20.9151 16.3579 20.0715 16.3579 19.0348V18.2008C15.7177 17.9348 15.1176 17.5914 14.564 17.1741L13.8063 17.6069C12.9141 18.1161 11.767 17.8091 11.2494 16.9218L9.93842 14.6753C9.42132 13.7893 9.74885 12.5982 10.6299 12.0948L11.3613 11.677C11.2765 11.0015 11.2765 10.3158 11.3613 9.64027L10.6299 9.2225C9.75107 8.72044 9.42355 7.52404 9.93842 6.64199L11.2494 4.3955C11.7671 3.50849 12.9143 3.2008 13.8063 3.71037L14.564 4.14319C15.1176 3.72593 15.7176 3.38251 16.3579 3.11653V2.28268C16.3579 1.24593 17.2015 0.402344 18.2384 0.402344H20.877C21.9139 0.402344 22.7575 1.24593 22.7575 2.28268V3.1167C23.3979 3.38268 23.9979 3.7261 24.5514 4.14336L25.309 3.71071C26.2009 3.20131 27.3483 3.50832 27.8661 4.39567L29.177 6.64216C29.6939 7.52814 29.3668 8.71942 28.4856 9.22267L27.7541 9.64044C27.8391 10.316 27.8391 11.0018 27.7541 11.6772L28.4856 12.095C29.3591 12.6059 29.6963 13.7854 29.177 14.6753L27.8659 16.9218C27.3481 17.809 26.2009 18.1163 25.309 17.6069L24.5512 17.1741C23.9977 17.5914 23.3977 17.935 22.7574 18.2008V19.0348C22.7575 20.0715 21.9139 20.9151 20.877 20.9151ZM14.6483 15.2868C14.8512 15.2868 15.0524 15.3587 15.2121 15.4989C15.877 16.0821 16.6403 16.5184 17.4806 16.7958C17.8309 16.9115 18.0675 17.2387 18.0675 17.6074V19.0348C18.0675 19.129 18.1442 19.2057 18.2384 19.2057H20.877C20.9712 19.2057 21.048 19.129 21.048 19.0348V17.6074C21.048 17.2387 21.2845 16.9115 21.6348 16.7958C22.4751 16.5184 23.2386 16.082 23.9035 15.4989C24.1777 15.2584 24.5745 15.2182 24.8912 15.3994L26.1572 16.1225C26.2384 16.1686 26.3427 16.1408 26.3898 16.0601L27.7008 13.8136C27.745 13.7179 27.724 13.6397 27.6379 13.5791L26.3907 12.8668C26.0698 12.6835 25.903 12.3148 25.9774 11.9527C26.1521 11.1016 26.1521 10.2157 25.9774 9.36438C25.903 9.00233 26.0698 8.63361 26.3907 8.45036L27.6379 7.73805C27.724 7.67737 27.745 7.59908 27.7006 7.50335L26.3897 5.25703C26.3427 5.17635 26.2382 5.14849 26.1572 5.19481L24.891 5.91789C24.5743 6.09857 24.1779 6.05874 23.9033 5.81823C23.2384 5.23498 22.475 4.79874 21.6346 4.52131C21.2844 4.40558 21.0478 4.0784 21.0478 3.70969V2.28268C21.0478 2.18849 20.971 2.11174 20.8769 2.11174H18.2382C18.144 2.11174 18.0673 2.18849 18.0673 2.28268V3.71003C18.0673 4.07875 17.8307 4.40592 17.4805 4.52165C16.6401 4.79909 15.8769 5.2355 15.2119 5.81857C14.9377 6.05908 14.541 6.09908 14.2242 5.91823L12.9581 5.19515C12.877 5.14883 12.7728 5.17686 12.7256 5.25738L11.4147 7.50387C11.3704 7.59959 11.3914 7.67771 11.4776 7.7384L12.7247 8.4507C13.0458 8.63412 13.2124 9.00284 13.1381 9.36489C12.9632 10.2157 12.9632 11.1021 13.1381 11.9529C13.2126 12.315 13.0458 12.6837 12.7247 12.8671L11.4776 13.5794C11.3914 13.6401 11.3706 13.7184 11.4147 13.8139L12.7256 16.0604C12.7728 16.1411 12.877 16.1693 12.9581 16.1227L14.2242 15.3996C14.3569 15.3238 14.503 15.2868 14.6483 15.2868Z" fill="#0D0DA5"/>
<path d="M19.5577 14.9337C17.201 14.9337 15.2837 13.0166 15.2837 10.6602C15.2837 8.30381 17.201 6.38672 19.5577 6.38672C21.9144 6.38672 23.8317 8.30381 23.8317 10.6602C23.8317 13.0166 21.9144 14.9337 19.5577 14.9337ZM19.5577 8.09612C18.1437 8.09612 16.9933 9.24637 16.9933 10.6602C16.9933 12.0741 18.1437 13.2243 19.5577 13.2243C20.9717 13.2243 22.1221 12.0741 22.1221 10.6602C22.1221 9.24637 20.9717 8.09612 19.5577 8.09612Z" fill="#0D0DA5"/>
<path d="M8.19216 80.4053H3.01405C2.54191 80.4053 2.15918 80.0226 2.15918 79.5506V64.3371C2.15918 63.8652 2.54191 63.4824 3.01405 63.4824H8.19233C8.66447 63.4824 9.0472 63.8652 9.0472 64.3371V79.5506C9.04703 80.0226 8.66429 80.4053 8.19216 80.4053ZM3.86875 78.6959H7.33746V65.1918H3.86875V78.6959Z" fill="#0D0DA5"/>
<path d="M18.767 80.4053H13.5888C13.1166 80.4053 12.7339 80.0226 12.7339 79.5506V58.5402C12.7339 58.0683 13.1166 57.6855 13.5888 57.6855H18.767C19.2392 57.6855 19.6219 58.0683 19.6219 58.5402V62.4907C19.6219 62.9626 19.2392 63.3454 18.767 63.3454C18.2949 63.3454 17.9122 62.9626 17.9122 62.4907V59.3949H14.4435V78.6959H17.9122V71.5995C17.9122 71.1276 18.2949 70.7448 18.767 70.7448C19.2392 70.7448 19.6219 71.1276 19.6219 71.5995V79.5506C19.6217 80.0226 19.239 80.4053 18.767 80.4053Z" fill="#0D0DA5"/>
<path d="M29.3417 80.4043H24.1635C23.6913 80.4043 23.3086 80.0216 23.3086 79.5496V68.4387C23.3086 67.9667 23.6913 67.584 24.1635 67.584H29.3417C29.8139 67.584 30.1966 67.9667 30.1966 68.4387V79.5496C30.1966 80.0216 29.8137 80.4043 29.3417 80.4043ZM25.0183 78.6949H28.487V69.2934H25.0183V78.6949Z" fill="#0D0DA5"/>
<path d="M33.4895 34.273C34.1032 34.273 34.6006 33.7755 34.6006 33.1619C34.6006 32.5482 34.1032 32.0508 33.4895 32.0508C32.8759 32.0508 32.3784 32.5482 32.3784 33.1619C32.3784 33.7755 32.8759 34.273 33.4895 34.273Z" fill="#0D0DA5"/>
<path d="M18.7674 68.0503C19.381 68.0503 19.8785 67.5529 19.8785 66.9392C19.8785 66.3256 19.381 65.8281 18.7674 65.8281C18.1537 65.8281 17.6562 66.3256 17.6562 66.9392C17.6562 67.5529 18.1537 68.0503 18.7674 68.0503Z" fill="#0D0DA5"/>
<path d="M64.5135 42.3804C65.1271 42.3804 65.6246 41.883 65.6246 41.2693C65.6246 40.6557 65.1271 40.1582 64.5135 40.1582C63.8998 40.1582 63.4023 40.6557 63.4023 41.2693C63.4023 41.883 63.8998 42.3804 64.5135 42.3804Z" fill="#0D0DA5"/>
</svg>
