<svg width="222" height="198" viewBox="0 0 222 198" fill="none" xmlns="http://www.w3.org/2000/svg">
<path opacity="0.4" d="M201.347 21.6779C189.643 9.89866 174.128 2.70926 157.604 1.40841C141.081 0.107556 124.638 4.78102 111.247 14.5846C97.1985 4.09576 79.7123 -0.660393 62.3098 1.27394C44.9073 3.20827 28.8814 11.6894 17.4591 25.0094C6.0369 38.3294 0.0668421 55.499 0.751191 73.0604C1.43554 90.6219 8.72346 107.271 21.1473 119.655L89.7161 188.593C95.458 194.265 103.191 197.444 111.247 197.444C119.304 197.444 127.037 194.265 132.779 188.593L201.347 119.655C214.239 106.635 221.475 89.0233 221.475 70.6663C221.475 52.3092 214.239 34.6979 201.347 21.6779ZM185.779 104.36L117.21 173.187C116.43 173.978 115.501 174.606 114.477 175.034C113.454 175.463 112.356 175.683 111.247 175.683C110.138 175.683 109.041 175.463 108.017 175.034C106.994 174.606 106.065 173.978 105.285 173.187L36.7161 104.027C28.0568 95.1421 23.2078 83.2067 23.2078 70.7771C23.2078 58.3475 28.0568 46.4121 36.7161 37.5271C45.5401 28.7822 57.441 23.8787 69.8411 23.8787C82.2412 23.8787 94.1421 28.7822 102.966 37.5271C103.993 38.5659 105.214 39.3905 106.559 39.9532C107.905 40.5158 109.348 40.8055 110.806 40.8055C112.263 40.8055 113.707 40.5158 115.052 39.9532C116.398 39.3905 117.619 38.5659 118.645 37.5271C127.469 28.7822 139.37 23.8787 151.77 23.8787C164.17 23.8787 176.071 28.7822 184.895 37.5271C193.674 46.2957 198.682 58.1664 198.847 70.5963C199.012 83.0262 194.321 95.0267 185.779 104.027V104.36Z" fill="#0D0DA5"/>
</svg>
