<svg width="303" height="182" viewBox="0 0 303 182" fill="none" xmlns="http://www.w3.org/2000/svg">
<path opacity="0.3" d="M301.541 9.8629C300.01 6.17729 297.081 3.24848 293.396 1.7179C291.582 0.945011 289.635 0.535062 287.664 0.51123H212.247C208.247 0.51123 204.41 2.10037 201.582 4.92904C198.753 7.75771 197.164 11.5942 197.164 15.5946C197.164 19.5949 198.753 23.4314 201.582 26.2601C204.41 29.0888 208.247 30.6779 212.247 30.6779H251.313L166.997 114.994L117.373 65.2187C115.971 63.805 114.303 62.6829 112.465 61.9171C110.627 61.1514 108.655 60.7571 106.664 60.7571C104.673 60.7571 102.701 61.1514 100.863 61.9171C99.0252 62.6829 97.357 63.805 95.9548 65.2187L5.45479 155.719C4.04105 157.121 2.91894 158.789 2.15318 160.627C1.38742 162.465 0.993164 164.437 0.993164 166.428C0.993164 168.419 1.38742 170.391 2.15318 172.229C2.91894 174.067 4.04105 175.735 5.45479 177.137C6.85698 178.551 8.52522 179.673 10.3633 180.439C12.2013 181.204 14.1728 181.599 16.164 181.599C18.1551 181.599 20.1266 181.204 21.9647 180.439C23.8027 179.673 25.4709 178.551 26.8731 177.137L106.664 97.1954L156.288 146.97C157.69 148.384 159.359 149.506 161.197 150.272C163.035 151.038 165.006 151.432 166.997 151.432C168.988 151.432 170.96 151.038 172.798 150.272C174.636 149.506 176.304 148.384 177.706 146.97L272.581 51.9454V91.0112C272.581 95.0116 274.17 98.8481 276.998 101.677C279.827 104.505 283.664 106.095 287.664 106.095C291.664 106.095 295.501 104.505 298.33 101.677C301.158 98.8481 302.747 95.0116 302.747 91.0112V15.5946C302.723 13.6235 302.314 11.6762 301.541 9.8629Z" fill="#0D0DA5"/>
</svg>
