<svg width="309" height="119" viewBox="0 0 309 119" fill="none" xmlns="http://www.w3.org/2000/svg">
<path d="M307.965 35.9642C289.028 2.76858 243.774 40.0901 220.252 46.8683C216.308 37.0369 207.356 34.1193 200.495 32.9051C130.003 21.6592 127.705 -23.195 74.4942 16.7907C70.8871 18.3762 66.39 17.2209 62.5531 17.7042C63.5963 0.405037 59.3644 0.864777 49.7043 0.976765C-17.2038 3.35798 5.52913 -20.908 1.64502 110.413C1.13814 122.395 18.3072 117.226 43.2858 118.258C67.3448 119.637 61.8812 114.155 62.5531 95.2471C79.4156 94.8699 101.129 95.7127 108.249 99.1372C215.242 126.232 163.64 128.608 300.085 49.2495C303.156 46.9862 311.755 44.5755 307.965 35.9642ZM45.7023 97.1686H18.4958V22.0718H45.7023V97.1686ZM187.823 96.7029C172.422 99.6971 173.465 96.3493 151.617 91.4572C110.046 80.4057 104.683 77.4705 73.4628 78.8556V34.4965C92.3352 36.2648 94.7812 27.683 104.27 22.9087C128.642 11.0085 141.815 32.9877 159.579 38.4986C184.369 48.2062 212.466 46.0077 202.634 60.1477C202.593 60.1595 165.951 54.7015 154.045 52.951C139.834 49.3084 139.469 66.2009 152.088 65.8591C196.853 71.5469 210.008 79.7397 216.491 62.0456C233.648 55.7861 274.782 32.5338 279.562 40.1431L187.823 96.7029Z" fill="#9696D3"/>
</svg>
