<svg width="271" height="271" viewBox="0 0 271 271" fill="none" xmlns="http://www.w3.org/2000/svg">
<g opacity="0.3">
<path d="M236.664 124.011H224.627C222.116 104.211 213.094 85.8071 198.981 71.6941C184.868 57.5811 166.464 48.5597 146.664 46.0487V34.0112C146.664 31.0275 145.479 28.1661 143.369 26.0563C141.259 23.9465 138.398 22.7612 135.414 22.7612C132.43 22.7612 129.569 23.9465 127.459 26.0563C125.349 28.1661 124.164 31.0275 124.164 34.0112V46.0487C104.364 48.5597 85.9599 57.5811 71.8469 71.6941C57.7339 85.8071 48.7125 104.211 46.2016 124.011H34.1641C31.1804 124.011 28.3189 125.196 26.2091 127.306C24.0993 129.416 22.9141 132.278 22.9141 135.261C22.9141 138.245 24.0993 141.106 26.2091 143.216C28.3189 145.326 31.1804 146.511 34.1641 146.511H46.2016C48.7125 166.311 57.7339 184.715 71.8469 198.828C85.9599 212.941 104.364 221.963 124.164 224.474V236.511C124.164 239.495 125.349 242.356 127.459 244.466C129.569 246.576 132.43 247.761 135.414 247.761C138.398 247.761 141.259 246.576 143.369 244.466C145.479 242.356 146.664 239.495 146.664 236.511V224.474C166.464 221.963 184.868 212.941 198.981 198.828C213.094 184.715 222.116 166.311 224.627 146.511H236.664C239.648 146.511 242.509 145.326 244.619 143.216C246.729 141.106 247.914 138.245 247.914 135.261C247.914 132.278 246.729 129.416 244.619 127.306C242.509 125.196 239.648 124.011 236.664 124.011ZM135.414 202.761C122.064 202.761 109.013 198.802 97.9131 191.385C86.8128 183.968 78.1611 173.426 73.0522 161.092C67.9433 148.758 66.6066 135.186 69.2111 122.093C71.8156 108.999 78.2443 96.9716 87.6844 87.5315C97.1244 78.0915 109.152 71.6627 122.245 69.0582C135.339 66.4537 148.911 67.7904 161.245 72.8994C173.579 78.0083 184.121 86.6599 191.538 97.7602C198.955 108.861 202.914 121.911 202.914 135.261C202.914 153.163 195.802 170.332 183.144 182.991C170.485 195.65 153.316 202.761 135.414 202.761ZM135.414 101.511C128.739 101.511 122.214 103.491 116.664 107.199C111.113 110.908 106.788 116.179 104.233 122.346C101.679 128.513 101.01 135.299 102.313 141.846C103.615 148.392 106.829 154.406 111.549 159.126C116.269 163.846 122.283 167.06 128.83 168.363C135.377 169.665 142.163 168.997 148.33 166.442C154.497 163.888 159.768 159.562 163.476 154.012C167.185 148.462 169.164 141.936 169.164 135.261C169.164 126.31 165.608 117.726 159.279 111.396C152.95 105.067 144.365 101.511 135.414 101.511ZM135.414 146.511C133.189 146.511 131.014 145.851 129.164 144.615C127.314 143.379 125.872 141.622 125.02 139.566C124.169 137.511 123.946 135.249 124.38 133.066C124.814 130.884 125.886 128.88 127.459 127.306C129.032 125.733 131.037 124.661 133.219 124.227C135.402 123.793 137.664 124.016 139.719 124.868C141.775 125.719 143.532 127.161 144.768 129.011C146.004 130.861 146.664 133.036 146.664 135.261C146.664 138.245 145.479 141.106 143.369 143.216C141.259 145.326 138.398 146.511 135.414 146.511Z" fill="#0D0DA5"/>
</g>
</svg>
