<svg width="202" height="193" viewBox="0 0 202 193" fill="none" xmlns="http://www.w3.org/2000/svg">
<path opacity="0.4" d="M200.914 73.2112C200.282 71.3821 199.134 69.7755 197.607 68.5862C196.081 67.397 194.242 66.6762 192.314 66.5112L135.414 58.2112L109.914 6.51122C109.095 4.82051 107.816 3.39464 106.225 2.39695C104.633 1.39927 102.792 0.870117 100.914 0.870117C99.0353 0.870117 97.1947 1.39927 95.6029 2.39695C94.0112 3.39464 92.7327 4.82051 91.9138 6.51122L66.4138 58.1112L9.51384 66.5112C7.66306 66.7743 5.92308 67.5508 4.49134 68.7528C3.0596 69.9548 1.99344 71.534 1.41384 73.3112C0.883287 75.048 0.835676 76.8964 1.27611 78.6581C1.71655 80.4199 2.62841 82.0285 3.91384 83.3112L45.2138 123.311L35.2138 180.111C34.8568 181.986 35.0438 183.924 35.7526 185.696C36.4613 187.468 37.6624 189 39.2138 190.111C40.726 191.192 42.5096 191.83 44.3643 191.954C46.2191 192.078 48.0715 191.682 49.7138 190.811L100.914 164.111L151.914 190.911C153.317 191.703 154.902 192.116 156.514 192.111C158.632 192.119 160.698 191.453 162.414 190.211C163.965 189.1 165.166 187.568 165.875 185.796C166.584 184.024 166.771 182.086 166.414 180.211L156.414 123.411L197.714 83.4112C199.158 82.188 200.225 80.5802 200.791 78.7747C201.358 76.9692 201.4 75.04 200.914 73.2112ZM139.414 113.211C138.241 114.346 137.364 115.75 136.858 117.301C136.353 118.852 136.234 120.504 136.514 122.111L143.714 164.011L106.114 144.011C104.667 143.241 103.053 142.838 101.414 142.838C99.7747 142.838 98.1607 143.241 96.7138 144.011L59.1138 164.011L66.3138 122.111C66.5932 120.504 66.475 118.852 65.9695 117.301C65.464 115.75 64.5866 114.346 63.4138 113.211L33.4138 83.2112L75.5138 77.1112C77.1338 76.8859 78.6738 76.2666 79.9988 75.3077C81.3238 74.3488 82.3934 73.0796 83.1138 71.6112L100.914 33.5112L119.714 71.7112C120.434 73.1796 121.504 74.4488 122.829 75.4077C124.154 76.3666 125.694 76.9859 127.314 77.2112L169.414 83.3112L139.414 113.211Z" fill="#0D0DA5"/>
</svg>
