<svg width="226" height="181" viewBox="0 0 226 181" fill="none" xmlns="http://www.w3.org/2000/svg">
<path opacity="0.4" fill-rule="evenodd" clip-rule="evenodd" d="M113.414 90.2612C94.7745 90.2612 79.6641 105.372 79.6641 124.011V136.868V169.011C79.6641 175.224 74.6273 180.261 68.4141 180.261C62.2009 180.261 57.1641 175.224 57.1641 169.011V136.868V124.011L57.1654 123.612C55.3279 123.875 53.4494 124.011 51.5391 124.011C50.3009 124.011 49.0762 123.954 47.8672 123.842C47.2329 123.953 46.5802 124.011 45.9141 124.011H41.0926C31.329 124.011 23.4141 131.926 23.4141 141.69V157.761C23.4141 163.974 18.3773 169.011 12.1641 169.011C5.95086 169.011 0.914062 163.974 0.914062 157.761V141.69C0.914062 127.391 8.38363 114.836 19.6336 107.716C14.9345 101.231 12.1641 93.257 12.1641 84.6362C12.1641 62.89 29.7929 45.2612 51.5391 45.2612C57.6426 45.2612 63.4218 46.65 68.5779 49.1287C68.4694 47.854 68.4141 46.5641 68.4141 45.2612C68.4141 20.4084 88.5612 0.26123 113.414 0.26123C138.267 0.26123 158.414 20.4084 158.414 45.2612C158.414 46.5641 158.359 47.854 158.25 49.1288C163.406 46.65 169.185 45.2612 175.289 45.2612C197.035 45.2612 214.664 62.89 214.664 84.6362C214.664 93.257 211.894 101.231 207.195 107.716C218.445 114.836 225.914 127.391 225.914 141.69V157.761C225.914 163.974 220.877 169.011 214.664 169.011C208.451 169.011 203.414 163.974 203.414 157.761V141.69C203.414 131.926 195.499 124.011 185.735 124.011H180.914C180.248 124.011 179.595 123.953 178.961 123.842C177.752 123.954 176.527 124.011 175.289 124.011C173.379 124.011 171.5 123.875 169.663 123.612L169.664 124.011V136.868V169.011C169.664 175.224 164.627 180.261 158.414 180.261C152.201 180.261 147.164 175.224 147.164 169.011V136.868V124.011C147.164 105.372 132.054 90.2612 113.414 90.2612ZM113.414 67.7612C100.988 67.7612 90.9141 57.6876 90.9141 45.2612C90.9141 32.8348 100.988 22.7612 113.414 22.7612C125.84 22.7612 135.914 32.8348 135.914 45.2612C135.914 57.6876 125.84 67.7612 113.414 67.7612ZM51.5391 67.7612C42.2193 67.7612 34.6641 75.3164 34.6641 84.6362C34.6641 93.956 42.2193 101.511 51.5391 101.511C60.8589 101.511 68.4141 93.956 68.4141 84.6362C68.4141 75.3164 60.8589 67.7612 51.5391 67.7612ZM175.289 67.7612C165.969 67.7612 158.414 75.3164 158.414 84.6362C158.414 93.956 165.969 101.511 175.289 101.511C184.609 101.511 192.164 93.956 192.164 84.6362C192.164 75.3164 184.609 67.7612 175.289 67.7612Z" fill="#0D0DA5"/>
</svg>
