<svg width="161" height="165" viewBox="0 0 161 165" fill="none" xmlns="http://www.w3.org/2000/svg">
<g clip-path="url(#clip0_739_2347)">
<path d="M96.8694 2.50892C99.2119 1.5518 101.628 0.798551 104.027 0C101.368 2.62219 98.6983 5.38031 97.0839 8.80672C95.7067 11.6611 95.1196 14.861 95.2156 18.0212C95.3228 21.6685 96.209 25.2422 97.2984 28.7082C99.2627 34.938 101.961 40.947 103.287 47.3694C103.75 49.6631 104.032 52.0021 103.97 54.3468C103.965 55.5645 103.761 56.7708 103.654 57.9828C103.09 64.0031 101.193 69.8987 98.0717 75.0752C94.8995 80.4215 90.6097 84.9523 86.4722 89.5454C82.7017 93.708 79.0553 98.0633 76.3911 103.041C75.0759 105.403 74.1333 107.946 73.36 110.529C72.1972 105.919 70.0015 101.648 67.4727 97.6555C64.2045 92.4621 60.3945 87.5971 57.6061 82.1092C55.8958 78.7678 54.6145 75.1884 53.9992 71.4789C53.4573 68.0638 53.0735 64.5694 53.5928 61.1317C54.0556 57.5807 55.3821 54.2335 56.2852 50.7845C57.0472 47.9641 57.2674 44.9568 56.6521 42.0854C56.0087 38.9535 54.5185 36.0934 52.9775 33.3296C55.7942 34.4736 58.56 35.7479 61.179 37.311C64.5545 39.3499 67.6985 41.8758 70.0635 45.0587C72.9366 48.8476 74.4437 53.5653 74.6864 58.2943C74.9291 62.1851 74.4268 66.0759 73.8397 69.9214C73.1342 74.0727 72.1407 78.1788 71.5424 82.3471C71.0626 85.8301 70.803 89.4038 71.5311 92.8755C71.8754 94.5915 72.5979 96.2056 73.5011 97.7008C75.7137 95.6619 77.5934 93.255 78.9593 90.5648C81.5784 85.4394 82.3856 79.555 82.109 73.8519C81.9396 70.567 81.4599 67.2992 80.6809 64.105C79.552 60.1236 78.2481 56.1874 77.2378 52.172C75.1549 44.1299 74.963 35.612 76.6338 27.4736C77.7232 21.8441 79.5972 16.1749 83.3169 11.7064C86.8504 7.39651 91.7837 4.54778 96.8694 2.50892Z" fill="#EC2227"/>
<path d="M57.5159 106.559C58.9496 106.281 60.4962 106.553 61.7211 107.357C63.0927 108.224 63.9958 109.696 64.3853 111.254C64.6619 112.284 64.6845 113.366 64.6901 114.431C64.6901 118.571 64.6901 122.705 64.6901 126.845C64.6562 128.833 64.1087 130.917 62.7653 132.429C60.7446 134.757 56.7257 134.797 54.6146 132.577C53.3559 131.251 52.7463 129.428 52.6051 127.627C52.5374 126.318 52.5713 125.005 52.56 123.696C52.5713 120.292 52.5431 116.883 52.5769 113.479C52.5713 111.809 53.0059 110.081 54.0389 108.745C54.8799 107.623 56.1443 106.83 57.5159 106.559ZM58.1819 111.344C57.4199 111.661 57.2957 112.601 57.2957 113.326C57.2732 118.044 57.2958 122.762 57.2845 127.474C57.2732 128.142 57.4538 128.907 58.0465 129.286C58.4755 129.586 59.0851 129.456 59.4237 129.082C59.9261 128.59 59.9826 127.836 59.9713 127.168C59.9769 122.654 59.9769 118.14 59.9713 113.627C59.9487 112.981 59.9882 112.256 59.5818 111.707C59.2544 111.288 58.6617 111.203 58.1819 111.344Z" fill="#25699C"/>
<path d="M0.635742 107.096C2.73551 107.102 4.82963 107.074 6.92376 107.113C8.55503 107.204 10.3726 107.538 11.5015 108.846C12.5739 110.126 12.7489 111.865 12.8675 113.468C12.9803 115.971 13.144 118.644 11.9587 120.938C11.3265 122.229 10.0226 123.147 8.59454 123.26C7.51079 123.311 6.42704 123.26 5.34329 123.283C5.35457 126.822 5.34893 130.362 5.34893 133.896C3.77975 133.902 2.21621 133.896 0.647031 133.902C0.641387 124.965 0.647031 116.033 0.635742 107.096ZM5.33764 111.854C5.34893 114.062 5.34329 116.271 5.33764 118.48C5.96418 118.457 6.60766 118.559 7.21727 118.395C7.97364 118.089 8.14298 117.183 8.18813 116.458C8.23329 115.172 8.34053 113.83 7.88333 112.613C7.40354 111.695 6.20125 111.905 5.33764 111.854Z" fill="#25699C"/>
<path d="M14.4368 107.107C17.9139 107.079 21.3965 107.102 24.8736 107.096C24.8623 108.823 24.8679 110.551 24.8736 112.278C22.9601 112.284 21.0409 112.272 19.1274 112.284C19.1387 114.056 19.1331 115.829 19.1331 117.602C20.8095 117.607 22.4859 117.602 24.1624 117.602C24.1624 119.329 24.168 121.051 24.1624 122.773C22.4859 122.778 20.8095 122.767 19.1331 122.778C19.1444 124.772 19.1218 126.76 19.1444 128.753C21.1312 128.759 23.1181 128.753 25.1106 128.753V133.901C21.5377 133.896 17.9647 133.913 14.386 133.89C14.3804 125.202 14.3917 116.509 14.3804 107.815C14.4142 107.589 14.3126 107.306 14.4368 107.107Z" fill="#25699C"/>
<path d="M26.3129 107.091C29.9029 107.096 33.4984 107.091 37.0884 107.096C37.0714 108.824 37.1053 110.557 37.0714 112.29C36.0611 112.273 35.0563 112.284 34.046 112.284C34.0516 119.494 34.0516 126.698 34.0516 133.907C32.4824 133.902 30.9132 133.902 29.3441 133.907C29.3497 126.698 29.3384 119.494 29.3497 112.284C28.3337 112.279 27.3177 112.29 26.3017 112.279C26.3073 110.546 26.2678 108.818 26.3129 107.091Z" fill="#25699C"/>
<path d="M38.5498 107.096C40.7963 107.096 43.0429 107.085 45.2894 107.102C46.8416 107.159 48.5689 107.538 49.5623 108.846C50.5614 110.16 50.6573 111.882 50.6856 113.468C50.7307 115.003 50.7251 116.639 49.9743 118.027C49.5341 118.854 48.7551 119.443 47.8972 119.777C49.2744 120.111 50.1776 121.391 50.4372 122.733C51.0129 125.491 50.5049 128.318 50.5783 131.104C50.6291 132.055 50.7025 133.024 51.0637 133.913C49.5115 133.896 47.9536 133.93 46.3957 133.896C46.1474 133.262 46.0062 132.582 45.9667 131.897C45.8087 129.479 46.1473 127.06 45.9667 124.648C45.8764 123.945 45.7748 123.158 45.2442 122.637C44.7023 122.133 43.9121 122.416 43.2573 122.348C43.2517 126.199 43.2799 130.051 43.2461 133.902C41.6825 133.907 40.119 133.907 38.5555 133.902C38.5555 124.965 38.5667 116.033 38.5498 107.096ZM43.2573 111.661C43.2404 113.694 43.3081 115.733 43.2235 117.761C43.9629 117.727 44.8209 117.942 45.4305 117.404C46.0006 116.838 45.9837 115.965 46.0006 115.218C45.9837 114.272 46.074 113.281 45.7409 112.38C45.2612 111.497 44.104 111.667 43.2573 111.661Z" fill="#25699C"/>
<path d="M64.9834 107.153C66.7219 107.153 68.4604 107.147 70.2046 107.158C71.2319 112.958 72.3608 118.746 73.3712 124.551C73.8171 122.71 74.0655 120.819 74.4324 118.955C75.1436 115.019 75.8378 111.083 76.566 107.153C78.3835 107.158 80.2067 107.153 82.0243 107.153C79.8624 116.067 77.6949 124.981 75.5443 133.896C73.9187 133.907 72.2931 133.901 70.6618 133.901C68.7709 124.981 66.8856 116.067 64.9834 107.153Z" fill="#25699C"/>
<path d="M83.0238 107.153H87.7369C87.7482 116.068 87.7313 124.988 87.7426 133.902C86.1678 133.908 84.5986 133.902 83.0238 133.908C83.0181 124.988 83.0181 116.068 83.0238 107.153Z" fill="#25699C"/>
<path d="M89.2156 107.153C92.6926 107.153 96.1697 107.153 99.6467 107.153C99.658 108.875 99.6411 110.597 99.658 112.318C97.7501 112.324 95.8423 112.324 93.9288 112.318C93.9231 114.091 93.9288 115.869 93.9288 117.642C95.6052 117.636 97.2873 117.636 98.9637 117.642C98.9581 119.364 98.9637 121.085 98.9581 122.807C97.2816 122.807 95.5996 122.807 93.9232 122.807C93.9288 124.784 93.9288 126.76 93.9232 128.737C95.91 128.777 97.8969 128.743 99.8838 128.754C99.8838 130.47 99.8838 132.186 99.8838 133.902C96.3277 133.896 92.7717 133.902 89.21 133.902C89.2156 124.988 89.21 116.068 89.2156 107.153Z" fill="#25699C"/>
<path d="M101.103 107.147C104.693 107.147 108.278 107.147 111.867 107.147C111.873 108.869 111.862 110.591 111.873 112.313C110.857 112.318 109.841 112.313 108.825 112.313C108.831 119.511 108.825 126.703 108.825 133.902C107.256 133.896 105.692 133.896 104.123 133.896C104.129 126.703 104.123 119.505 104.129 112.313C103.118 112.313 102.108 112.318 101.098 112.313C101.109 110.591 101.092 108.869 101.103 107.147Z" fill="#25699C"/>
<path d="M113.329 107.17C115.045 107.136 116.761 107.159 118.477 107.159C119.538 111.678 120.639 116.186 121.717 120.706C121.886 121.38 122.033 122.054 122.157 122.739C122.259 122.173 122.281 121.606 122.264 121.034C122.287 116.407 122.281 111.78 122.31 107.153C123.822 107.159 125.335 107.153 126.848 107.159C126.853 116.073 126.848 124.993 126.853 133.907C125.149 133.902 123.444 133.907 121.739 133.907C120.498 128.414 119.177 122.937 117.98 117.438C117.879 119.313 117.958 121.193 117.924 123.067C117.912 126.681 117.901 130.294 117.896 133.907C116.377 133.913 114.859 133.907 113.34 133.907C113.335 124.987 113.34 116.079 113.329 107.17Z" fill="#25699C"/>
<path d="M131.329 110.8C131.521 109.583 131.645 108.354 131.871 107.147C133.943 107.159 136.014 107.147 138.086 107.153C139.35 116.073 140.643 124.987 141.896 133.907C140.248 133.89 138.605 133.907 136.957 133.902C136.833 132.322 136.675 130.747 136.55 129.173C135.455 129.167 134.36 129.178 133.271 129.167C133.062 130.742 132.932 132.327 132.774 133.902C131.205 133.907 129.636 133.896 128.072 133.907C129.133 126.199 130.24 118.503 131.329 110.8ZM133.734 124.398H136.088C135.692 120.072 135.365 115.733 134.987 111.401C134.547 115.733 134.157 120.066 133.734 124.398Z" fill="#25699C"/>
<path d="M143.115 107.153C145.581 107.147 148.048 107.159 150.509 107.147C150.978 111.531 151.384 115.92 151.853 120.304C152.338 115.926 152.773 111.537 153.23 107.153C155.696 107.153 158.163 107.153 160.63 107.153V133.902C159.123 133.902 157.616 133.902 156.109 133.902C156.097 127.089 156.142 120.27 156.086 113.457C155.651 116.288 155.341 119.143 154.951 121.98C154.443 125.95 153.913 129.92 153.416 133.896C152.394 133.919 151.373 133.902 150.351 133.907C149.482 127.026 148.55 120.156 147.749 113.27C147.625 115.382 147.726 117.5 147.687 119.613C147.676 124.376 147.67 129.139 147.653 133.907C146.135 133.907 144.622 133.907 143.104 133.907C143.12 124.982 143.109 116.067 143.115 107.153Z" fill="#25699C"/>
<path d="M72.0333 138.943C71.0907 138.478 69.9617 138.246 68.6409 138.246H66.2194H63.7979H61.6699V165H66.2194V154.625H68.6409C69.9505 154.625 71.0737 154.393 72.0164 153.934C72.959 153.475 73.6758 152.807 74.1726 151.929C74.6693 151.051 74.9177 149.992 74.9177 148.758V144.249C74.9177 142.986 74.6749 141.905 74.1839 141.004C73.6871 140.092 72.9703 139.413 72.0333 138.943ZM70.3061 148.05C70.3061 148.503 70.2327 148.893 70.0859 149.228C69.9392 149.556 69.7303 149.811 69.465 149.981C69.1941 150.151 68.878 150.236 68.5111 150.236H66.2194V142.618H68.5111C68.8893 142.618 69.211 142.709 69.482 142.884C69.7529 143.06 69.9561 143.326 70.0972 143.666C70.2383 144.012 70.3061 144.419 70.3061 144.901V148.05Z" fill="#25699C"/>
<path d="M84.6823 156.72L82.131 138.246H77.3105L82.2269 165H87.1377L92.0541 138.246H87.228L84.6823 156.72Z" fill="#25699C"/>
<path d="M99.6071 138.246H95.0576V165H99.6071V138.246Z" fill="#25699C"/>
</g>
<defs>
<clipPath id="clip0_739_2347">
<rect width="160" height="165" fill="white" transform="translate(0.635742)"/>
</clipPath>
</defs>
</svg>
