<svg width="102" height="102" viewBox="0 0 102 102" fill="none" xmlns="http://www.w3.org/2000/svg">
<path d="M101.204 42.603H97.5526L92.11 45.4667C91.4974 45.1286 90.8602 44.8422 90.1731 44.67L83.3268 42.9569V42.1784C86.3556 40.0646 88.2036 36.5724 88.2036 32.8525V30.0118C88.2036 23.6988 83.257 18.4157 77.1773 18.2316C76.8686 18.2237 76.5647 18.2348 76.2592 18.2499L78.0342 14.0944L69.4288 5.49132L64.356 8.79304C62.4286 7.70754 60.3901 6.86247 58.2731 6.26973L57.0202 0.351074H44.6353L43.3824 6.27132C41.2654 6.86406 39.2253 7.70913 37.2995 8.79463L32.2267 5.49291L23.6284 14.0912L25.3733 18.2499C25.3067 18.2467 25.2432 18.2348 25.1765 18.2332C22.0644 18.1428 19.1333 19.2783 16.9067 21.4397C14.677 23.5996 13.4503 26.4982 13.4503 29.6024V32.8525C13.4503 36.5724 15.2967 40.063 18.3255 42.1769V42.9569L13.8597 44.0733L5.76531 39.3528H0.449707V73.0263L16.437 78.3546H19.5507L19.9395 76.9929L24.8401 79.9344C24.9202 82.599 27.0571 84.743 29.7193 84.8366C29.8129 87.4877 31.9434 89.6182 34.5945 89.7118C34.6881 92.3629 36.8186 94.4934 39.4697 94.587C39.5665 97.3 41.7883 99.4805 44.5235 99.4805C45.5391 99.4805 46.535 99.1639 47.3721 98.5997L48.8115 99.8709C49.7137 100.665 50.8754 101.106 52.0815 101.106H52.3822C55.0864 101.106 57.2868 98.9195 57.3209 96.224C59.9958 96.1899 62.162 94.0237 62.1961 91.3488C64.8726 91.3147 67.0404 89.1453 67.0713 86.4688C69.7724 86.4053 71.9529 84.1986 71.9529 81.4825C71.9529 81.319 71.945 81.158 71.9283 80.9953L101.204 66.3585V42.603ZM84.9535 30.0118V32.8525C84.9535 35.7369 83.3951 38.4316 80.886 39.8845L80.0735 40.3542L80.0799 45.4968L88.1989 47.525L70.3278 56.9311V52.5534C70.3278 50.3689 69.4455 48.3685 68.0005 46.8902L73.578 45.4968V40.3502L72.767 39.8813C70.2596 38.4316 68.7028 35.7369 68.7028 32.8525V29.6024C68.7028 27.3862 69.5788 25.3136 71.1713 23.7702C72.7623 22.2277 74.873 21.3961 77.0797 21.4818C81.4209 21.6119 84.9535 25.4389 84.9535 30.0118ZM53.2773 55.6535L45.9208 53.3024C42.5683 52.228 38.9396 52.0677 35.5078 52.8279L34.5762 53.0342V52.5534C34.5762 50.3125 36.0958 48.3669 38.2684 47.8226L47.5768 45.4968V40.3502L46.7659 39.8813C44.2584 38.4316 42.7016 35.7369 42.7016 32.8525V29.6024C42.7016 27.3862 43.5776 25.3136 45.1701 23.7702C46.7611 22.2277 48.8853 21.3961 51.0785 21.4818C55.4197 21.6119 58.9523 25.4389 58.9523 30.0118V32.8525C58.9523 35.7369 57.3939 38.4316 54.8849 39.8845L54.0723 40.3542L54.0787 45.4968L63.3856 47.8226C65.5581 48.3669 67.0777 50.3125 67.0777 52.5534V58.6426L66.6762 58.8537H65.6803L55.6895 55.9987C54.9023 55.7757 54.0914 55.6845 53.2773 55.6535V55.6535ZM34.9404 24.6732C37.9922 18.7601 44.1346 14.9767 50.827 14.9767C57.4558 14.9767 63.572 18.7093 66.6468 24.5423C65.8732 26.0936 65.4526 27.8115 65.4526 29.6024V32.8525C65.4526 36.5724 67.2991 40.063 70.3278 42.1769V42.9569L63.8275 44.5843L57.3257 42.9569V42.1784C60.3544 40.0646 62.2025 36.5724 62.2025 32.8525V30.0118C62.2025 23.6988 57.2558 18.4157 51.1761 18.2316C48.0656 18.1404 45.1329 19.2767 42.9063 21.4381C40.6782 23.5996 39.4514 26.4982 39.4514 29.6024V32.8525C39.4514 36.5724 41.2979 40.063 44.3267 42.1769V42.9569L37.8264 44.5843L31.3245 42.9569V42.1784C34.3533 40.0646 36.2013 36.5724 36.2013 32.8525V30.0118C36.2013 28.0995 35.7411 26.284 34.9404 24.6732V24.6732ZM27.4665 14.845L32.6584 9.65319L37.2281 12.6272L38.1025 12.0908C40.2933 10.7482 42.6611 9.76507 45.1392 9.17233L46.139 8.9327L47.2697 3.60122H54.3858L55.5133 8.93111L56.5131 9.16995C58.9912 9.76348 61.359 10.7466 63.5498 12.0892L64.4242 12.6256L68.994 9.6516L74.1794 14.8387L72.3362 19.1545C71.0816 19.694 69.9184 20.4534 68.9059 21.435C68.8392 21.5 68.7821 21.5699 68.717 21.6365C64.8884 15.5504 58.1199 11.7266 50.827 11.7266C43.4816 11.7266 36.6941 15.5861 32.875 21.7341C31.853 20.6645 30.6373 19.798 29.29 19.1926L27.4665 14.845ZM21.5757 45.4968V40.3502L20.7647 39.8813C18.2573 38.4316 16.7004 35.7369 16.7004 32.8525V29.6024C16.7004 27.3862 17.5764 25.3136 19.169 23.7702C20.7599 22.2277 22.8754 21.3961 25.0773 21.4818C29.4185 21.6119 32.9512 25.4389 32.9512 30.0118V32.8525C32.9512 35.7369 31.3927 38.4316 28.8837 39.8845L28.0712 40.3542L28.0775 45.4968L33.6534 46.8902C32.2085 48.3685 31.3261 50.3689 31.3261 52.5534V53.7571L26.2573 54.8838L26.389 54.4236L26.4509 51.4203L17.8804 46.4205L21.5757 45.4968ZM3.69985 42.603H4.88454L16.5719 49.4199L10.6747 73.008L3.69985 70.6823V42.603ZM16.9639 75.1044L13.7653 74.0388L19.4943 51.1251L23.2007 53.2865V53.7507L17.1004 75.1044H16.9639ZM28.0759 79.7828C28.0759 79.3036 28.2696 78.8338 28.6092 78.4942L31.4657 75.6376C31.8054 75.298 32.2751 75.1044 32.7544 75.1044C33.7589 75.1044 34.5762 75.9217 34.5762 76.9263C34.5762 77.4055 34.3826 77.8753 34.043 78.2149L31.1864 81.0715C30.8468 81.4111 30.3771 81.6047 29.8978 81.6047C28.8932 81.6047 28.0759 80.7874 28.0759 79.7828ZM32.9512 84.6581C32.9512 84.1788 33.1448 83.709 33.4844 83.3694L36.341 80.5129C36.6806 80.1732 37.1503 79.9796 37.6296 79.9796C38.6342 79.9796 39.4514 80.7969 39.4514 81.8015C39.4514 82.2808 39.2578 82.7505 38.9182 83.0901L36.0616 85.9467C35.722 86.2863 35.2523 86.4799 34.773 86.4799C33.7685 86.4799 32.9512 85.6626 32.9512 84.6581ZM37.8264 89.5333C37.8264 89.054 38.02 88.5843 38.3596 88.2446L41.2162 85.3881C41.5558 85.0485 42.0255 84.8548 42.5048 84.8548C43.5094 84.8548 44.3267 85.6721 44.3267 86.6767C44.3267 87.156 44.1331 87.6257 43.7934 87.9653L40.9369 90.8219C40.5973 91.1615 40.1275 91.3551 39.6482 91.3551C38.6437 91.3551 37.8264 90.5378 37.8264 89.5333ZM44.5235 96.2304C43.5189 96.2304 42.7016 95.4131 42.7016 94.4085C42.7016 93.9292 42.8952 93.4595 43.2348 93.1199L46.0914 90.2633C46.431 89.9237 46.9008 89.7301 47.38 89.7301C48.3846 89.7301 49.2019 90.5474 49.2019 91.5519C49.2019 92.0312 49.0083 92.5009 48.6687 92.8406L45.8121 95.6971C45.4725 96.0367 45.0027 96.2304 44.5235 96.2304ZM52.3822 97.8554H52.0815C51.6673 97.8554 51.2705 97.7047 50.9619 97.4309L49.7462 96.3589L50.9666 95.1385C51.4022 94.7029 51.7403 94.1847 51.9902 93.6285L53.4677 94.8584C53.8541 95.1806 54.0771 95.6551 54.0771 96.1605C54.0771 97.0953 53.3169 97.8554 52.3822 97.8554V97.8554ZM66.9555 83.2298H66.6746C66.2667 83.2298 65.8684 83.0854 65.5566 82.8235L56.744 75.4797L54.6619 77.9777L63.2197 85.108C63.6046 85.4301 63.8275 85.9046 63.8275 86.4101C63.8275 87.3448 63.0674 88.105 62.1326 88.105H61.7779C61.3836 88.105 60.9979 87.9653 60.694 87.7114L51.8672 80.3565L49.7851 82.8545L58.3429 89.9856C58.7293 90.3053 58.9523 90.7799 58.9523 91.2853C58.9523 92.22 58.1922 92.9802 57.2574 92.9802C56.6337 92.9802 56.0259 92.7588 55.5474 92.3613L51.9204 89.3381C51.1213 87.7051 49.4796 86.5664 47.557 86.4982C47.4633 83.8471 45.3328 81.7166 42.6818 81.623C42.5881 78.9719 40.4576 76.8414 37.8065 76.7477C37.7113 74.0348 35.4895 71.8543 32.7544 71.8543C31.4189 71.8543 30.112 72.3954 29.1678 73.3397L26.3112 76.1963C26.1406 76.3669 25.9994 76.5605 25.8557 76.7525L20.8639 73.7571L25.24 58.4411L36.2108 56.0019C39.0888 55.3584 42.1231 55.498 44.9297 56.3962L47.3237 57.162L39.2078 61.2199C37.3535 62.1491 36.2013 64.0146 36.2013 66.0888V66.4101C36.2013 69.4119 38.6437 71.8543 41.6455 71.8543C42.6318 71.8543 43.6022 71.5861 44.4457 71.0774L50.4969 67.4488C51.7125 66.7204 53.3439 66.8799 54.3937 67.8241L68.1243 80.1812C68.4917 80.5144 68.7028 80.9874 68.7028 81.4825C68.7028 82.4466 67.9196 83.2298 66.9555 83.2298V83.2298ZM97.9541 64.3494L70.5762 78.0395C70.4873 77.9451 70.3945 77.8555 70.2969 77.7682L56.5687 65.4111C55.3657 64.3256 53.8105 63.7289 52.1902 63.7289C51.0055 63.7289 49.8422 64.0511 48.8234 64.6621L42.7698 68.2923C42.4302 68.497 42.0422 68.6041 41.6455 68.6041C40.4346 68.6041 39.4514 67.621 39.4514 66.4101V66.0888C39.4514 65.2516 39.9164 64.501 40.6639 64.1272L49.7288 59.5948C51.28 58.818 53.1217 58.6442 54.7936 59.1251L65.0059 62.0419L67.4792 62.1038L97.9541 46.0642V64.3494Z" fill="#B3D9FF"/>
</svg>
