<svg width="101" height="98" viewBox="0 0 101 98" fill="none" xmlns="http://www.w3.org/2000/svg">
<path d="M99.3043 73.2746L92.4577 66.4158C91.875 65.8324 91.101 65.5111 90.2767 65.5111C89.4533 65.5111 88.6785 65.8324 88.0966 66.4158L87.9378 66.5746L87.4881 66.1249C86.9328 65.568 86.5028 64.9201 86.2111 64.2144C86.1853 64.1209 86.1511 64.0298 86.1071 63.9439C85.8837 63.3165 85.7675 62.6487 85.7675 61.9628V60.0227C85.9004 60.0925 86.0455 60.1434 86.2013 60.17C86.2848 60.1845 86.3676 60.1913 86.4497 60.1913C87.1417 60.1913 87.754 59.6975 87.8823 58.9956C88.0381 58.2071 87.5268 57.4406 86.7376 57.2826C86.3904 57.2135 86.0471 57.2735 85.7584 57.43C85.6688 55.3577 84.8217 53.4221 83.348 51.9454L76.7057 45.2917C75.2153 43.799 73.2334 42.977 71.1254 42.977C69.4937 42.977 67.9395 43.4716 66.6283 44.3869L65.9234 43.6782V26.9965C65.9234 24.9857 65.1934 23.0456 63.8685 21.5346C62.9258 20.4605 62.407 19.081 62.407 17.6498V16.4276H62.5073C64.2073 16.4276 65.5907 15.0443 65.5907 13.3434V3.64127C65.5907 1.94044 64.2073 0.557129 62.5073 0.557129H35.2627C33.5626 0.557129 32.1793 1.94044 32.1793 3.64127V13.3434C32.1793 15.0443 33.5626 16.4276 35.2627 16.4276H35.4876V17.0672C35.4876 18.6396 34.8761 20.1179 33.7662 21.2293L30.8256 24.1752C29.2653 25.7385 28.4062 27.8161 28.4062 30.0267V39.4364C28.4062 40.7148 28.7131 41.9219 29.2532 42.9915C27.3191 43.1031 25.5165 43.9091 24.1355 45.2917L17.4932 51.9454C15.9329 53.5087 15.0737 55.5871 15.0737 57.7969V61.9628C15.0737 63.5352 14.463 65.0135 13.3531 66.1249L12.9087 66.57C12.9065 66.5715 12.9049 66.573 12.9034 66.5746L12.7454 66.4158C12.1628 65.8324 11.3887 65.5111 10.5645 65.5111C9.74103 65.5111 8.96619 65.8324 8.38431 66.4158L1.53689 73.2746C0.33666 74.4771 0.33666 76.434 1.53689 77.6365L3.88191 79.9845C4.45088 80.555 5.37461 80.5558 5.94434 79.9868C6.51407 79.4171 6.51559 78.4941 5.94586 77.9236L3.6016 75.5748C3.53551 75.5087 3.53551 75.4016 3.6016 75.3355L10.449 68.4767C10.5128 68.4129 10.6169 68.4121 10.6807 68.4767L11.8711 69.6693H11.8718L28.1259 85.9515L29.9467 87.7762C30.0128 87.8423 30.0128 87.9494 29.9467 88.0154L23.1001 94.8743C23.0355 94.9388 22.9314 94.9388 22.8676 94.8743L10.0753 82.0599C9.5063 81.4894 8.58257 81.4886 8.01284 82.0576C7.44235 82.6273 7.44159 83.5503 8.01056 84.1208L20.8037 96.9352C21.3856 97.5186 22.1604 97.8399 22.9846 97.8399C23.8081 97.8399 24.5821 97.5186 25.1648 96.9352L32.0114 90.0764C33.2117 88.8746 33.2117 86.9178 32.0114 85.7153L31.937 85.6408L32.8007 84.7756C33.8095 83.7645 35.1495 83.1568 36.5739 83.0649C38.5786 82.935 40.4647 82.0796 41.8845 80.6568L48.1743 74.3533C49.9884 73.877 51.4005 72.3995 51.7842 70.549C52.4306 70.8567 53.153 71.0299 53.9157 71.0299C56.6588 71.0299 58.8906 68.7958 58.8906 66.0489V62.5857C59.5181 62.8721 60.2147 63.0331 60.9485 63.0331C63.6916 63.0331 65.9226 60.799 65.9226 58.0521V47.8137L70.4091 52.3222C70.6939 52.6085 71.0684 52.7514 71.4429 52.7514C71.8152 52.7514 72.1874 52.6101 72.4723 52.3267C73.0427 51.7585 73.045 50.8355 72.4768 50.2643L68.7363 46.5056C69.4603 46.1068 70.2761 45.8941 71.1254 45.8941C72.4533 45.8941 73.7021 46.4121 74.641 47.3533L81.2833 54.0063C82.2937 55.0189 82.8505 56.365 82.8505 57.7969V61.9628C82.8505 64.3139 83.7643 66.5237 85.4234 68.1858L85.8761 68.6393L83.7605 70.7587L70.9651 83.5761L70.2518 82.8613C70.2442 82.8544 70.2374 82.8468 70.2298 82.84L70.1044 82.7139C68.5943 81.2015 66.5881 80.2922 64.4565 80.1539C63.1598 80.0696 61.9398 79.5166 61.0169 78.5929L56.2243 73.8261C55.653 73.2579 54.7293 73.2602 54.1611 73.8314C53.5936 74.4027 53.5959 75.3264 54.1672 75.8938L58.9567 80.6568C60.3765 82.0796 62.2627 82.935 64.2681 83.0649C65.6917 83.1568 67.0317 83.7645 68.0405 84.7748L68.1111 84.8455C68.1491 84.8888 68.1894 84.929 68.2319 84.967L68.9042 85.6401L68.8298 85.7153C67.6295 86.9178 67.6295 88.8738 68.8298 90.0764L75.6764 96.9352C76.2591 97.5186 77.0331 97.8399 77.8574 97.8399C78.6808 97.8399 79.4556 97.5186 80.0383 96.9352L99.3043 77.6357C100.505 76.4332 100.505 74.4771 99.3043 73.2746ZM86.7452 58.7715L86.7178 58.767L86.4519 58.713L86.7452 58.7715ZM39.8198 78.5959C38.9014 79.5166 37.6814 80.0696 36.3855 80.1539C34.2532 80.2922 32.2469 81.2015 30.7368 82.7139L29.8761 83.5761L29.1013 82.7998C29.0914 82.7899 29.0815 82.7792 29.0716 82.7701L14.9651 68.6393L15.4178 68.1858C17.0769 66.5237 17.9907 64.3139 17.9907 61.9628V57.7969C17.9907 56.365 18.5468 55.0189 19.5579 54.0063L26.2002 47.3533C27.1391 46.4121 28.388 45.8941 29.7158 45.8941C30.5674 45.8941 31.3863 46.1083 32.1125 46.5101L28.3659 50.2628C27.797 50.8325 27.7977 51.7562 28.3674 52.3252C28.6523 52.6093 29.0253 52.7514 29.3983 52.7514C29.772 52.7514 30.1458 52.6085 30.4306 52.3237L34.9057 47.8403V66.0489C34.9057 68.7958 37.1375 71.0299 39.8806 71.0299C40.6539 71.0299 41.3862 70.8521 42.0395 70.5361C42.3357 71.9817 43.2595 73.2002 44.5114 73.8945L39.8198 78.5959ZM63.0064 58.0529C63.0064 59.1908 62.0826 60.1168 60.9485 60.1168C59.8136 60.1168 58.8906 59.1908 58.8906 58.0529V41.7836C58.8906 40.9784 58.2381 40.3251 57.4321 40.3251C56.6261 40.3251 55.9736 40.9784 55.9736 41.7836V66.0496C55.9736 67.1876 55.0506 68.1128 53.9157 68.1128C52.897 68.1128 52.0516 67.3669 51.8882 66.3907V41.7669C51.8882 40.961 51.2357 40.3084 50.4297 40.3084C50.1707 40.3084 49.9268 40.3768 49.7157 40.4953C49.2546 40.7407 48.9408 41.2253 48.9408 41.7836V66.0489C48.9408 66.2342 48.9515 66.4158 48.9712 66.5958V69.5349C48.9712 70.6728 48.0482 71.5988 46.9133 71.5988C45.7792 71.5988 44.8562 70.6728 44.8562 69.5349V41.7495C44.8562 40.9442 44.2029 40.291 43.3977 40.291C42.5917 40.291 41.9384 40.9442 41.9384 41.7495V66.0489C41.9384 67.1868 41.0155 68.1128 39.8813 68.1128C38.7464 68.1128 37.8235 67.1868 37.8235 66.0489V38.9183C37.8235 38.1123 37.1702 37.459 36.365 37.459C35.559 37.459 34.9064 38.1123 34.9064 38.9183V43.9365C34.7841 43.976 34.6656 44.0314 34.5555 44.1044C32.6693 43.3956 31.3232 41.5709 31.3232 39.4364V30.0267C31.3232 28.5947 31.88 27.2487 32.8904 26.2361L35.8309 23.2902C37.4907 21.6281 38.4046 19.4183 38.4046 17.0672V16.4276H41.3368C42.1428 16.4276 42.7953 15.7743 42.7953 14.9691C42.7953 14.1631 42.1428 13.5105 41.3368 13.5105H35.2627C35.1708 13.5105 35.0964 13.4353 35.0964 13.3434V3.64127C35.0964 3.54936 35.1708 3.47415 35.2627 3.47415H62.5065C62.5992 3.47415 62.6736 3.54936 62.6736 3.64127V13.3434C62.6736 13.4361 62.5992 13.5105 62.5065 13.5105H48.1842C47.379 13.5105 46.7257 14.1631 46.7257 14.9691C46.7257 15.7743 47.379 16.4276 48.1842 16.4276H59.49V17.6498C59.49 19.789 60.2656 21.8514 61.6747 23.4588C62.5331 24.4372 63.0064 25.6937 63.0064 26.9965V58.0529ZM97.2396 75.5748L77.9736 94.8743C77.9417 94.9069 77.9029 94.9229 77.8574 94.9229C77.8125 94.9229 77.7738 94.9069 77.7411 94.8743L70.8945 88.0154C70.8284 87.9494 70.8284 87.8423 70.8945 87.7762L71.9967 86.6716L71.9975 86.6709L83.1817 75.4677L90.1605 68.4767C90.2243 68.4121 90.3284 68.4121 90.3922 68.4767L97.2396 75.3355C97.3057 75.4016 97.3057 75.5087 97.2396 75.5748Z" fill="#B3D9FF"/>
</svg>
